<svg width="500" height="500" viewBox="0 0 500 500" fill="none" xmlns="http://www.w3.org/2000/svg">
<rect width="500" height="500" fill="#D9D9D9"/>
<path d="M178 359V334.889C178 322.1 183.057 309.834 192.059 300.791C201.061 291.747 213.27 286.667 226 286.667H274C286.73 286.667 298.939 291.747 307.941 300.791C316.943 309.834 322 322.1 322 334.889V359M202 190.222C202 203.012 207.057 215.277 216.059 224.32C225.061 233.364 237.27 238.444 250 238.444C262.73 238.444 274.939 233.364 283.941 224.32C292.943 215.277 298 203.012 298 190.222C298 177.433 292.943 165.167 283.941 156.124C274.939 147.081 262.73 142 250 142C237.27 142 225.061 147.081 216.059 156.124C207.057 165.167 202 177.433 202 190.222Z" stroke="#616161" stroke-width="18" stroke-linecap="round" stroke-linejoin="round"/>
</svg>
